{
  "asset": {
    "version": "2.0",
    "generator": "Sketchup glTF Exporter v1.2.6 by Centaur"
  },
  "scene": 0,
  "scenes": [
    {
      "nodes": [
        0
      ]
    }
  ],
  "samplers": [
    {
    }
  ],
  "nodes": [
    {
      "name": "root",
      "children": [
        1
      ]
    },
    {
      "children": [
        2,
        27
      ],
      "mesh": 18
    },
    {
      "children": [
        3
      ],
      "mesh": 16
    },
    {
      "children": [
        4,
        14,
        17
      ]
    },
    {
      "name": "PUMP#3",
      "children": [
        5,
        10
      ]
    },
    {
      "children": [
        6,
        7,
        8,
        9
      ]
    },
    {
      "name": "Group#1",
      "mesh": 0
    },
    {
      "name": "Group#3",
      "mesh": 1
    },
    {
      "name": "Group#4",
      "mesh": 2
    },
    {
      "name": "Group#186",
      "mesh": 3
    },
    {
      "name": "Component#49",
      "children": [
        11,
        12,
        13
      ]
    },
    {
      "name": "Group#5",
      "mesh": 4
    },
    {
      "name": "Group#4",
      "mesh": 5
    },
    {
      "name": "Group#1",
      "mesh": 6
    },
    {
      "children": [
        15
      ]
    },
    {
      "children": [
        16
      ],
      "mesh": 8
    },
    {
      "mesh": 7
    },
    {
      "name": "PUMP#3",
      "children": [
        18,
        23
      ]
    },
    {
      "children": [
        19,
        20,
        21,
        22
      ]
    },
    {
      "name": "Group#1",
      "mesh": 9
    },
    {
      "name": "Group#3",
      "mesh": 10
    },
    {
      "name": "Group#4",
      "mesh": 11
    },
    {
      "name": "Group#186",
      "mesh": 12
    },
    {
      "name": "Component#49",
      "children": [
        24,
        25,
        26
      ]
    },
    {
      "name": "Group#5",
      "mesh": 13
    },
    {
      "name": "Group#4",
      "mesh": 14
    },
    {
      "name": "Group#1",
      "mesh": 15
    },
    {
      "mesh": 17
    }
  ],
  "materials": [
    {
      "pbrMetallicRoughness": {
        "baseColorFactor": [
          1.0,
          0.0461,
          0.0,
          1.0
        ],
        "metallicFactor": 0.1,
        "roughnessFactor": 0.9
      },
      "name": "Color_B01"
    },
    {
      "pbrMetallicRoughness": {
        "baseColorFactor": [
          0.0072,
          0.006,
          0.0084,
          1.0
        ],
        "metallicFactor": 0.1,
        "roughnessFactor": 0.9
      },
      "name": "RAL9017-Verkehrsschwarz"
    },
    {
      "pbrMetallicRoughness": {
        "baseColorFactor": [
          0.9406,
          0.949,
          0.9658,
          1.0
        ],
        "metallicFactor": 0.1,
        "roughnessFactor": 0.9
      },
      "name": "RAL9003-Signalweiss",
      "doubleSided": true
    },
    {
      "pbrMetallicRoughness": {
        "baseColorFactor": [
          0.006,
          0.0254,
          0.0963,
          1.0
        ],
        "metallicFactor": 0.1,
        "roughnessFactor": 0.9
      },
      "name": "RAL5003-Saphirblau",
      "doubleSided": true
    },
    {
      "pbrMetallicRoughness": {
        "baseColorFactor": [
          0.9075,
          0.9075,
          0.8513,
          1.0
        ],
        "metallicFactor": 0.1,
        "roughnessFactor": 0.9
      },
      "name": "RAL9010-Reinweiss",
      "doubleSided": true
    },
    {
      "pbrMetallicRoughness": {
        "baseColorFactor": [
          0.0824,
          0.1011,
          0.1166,
          1.0
        ],
        "metallicFactor": 0.1,
        "roughnessFactor": 0.9
      },
      "name": "RAL7011-Eisengrau"
    },
    {
      "pbrMetallicRoughness": {
        "baseColorFactor": [
          0.2176,
          0.2176,
          0.2176,
          1.0
        ],
        "metallicFactor": 0.1,
        "roughnessFactor": 0.9
      },
      "name": "default material",
      "doubleSided": true
    },
    {
      "pbrMetallicRoughness": {
        "baseColorFactor": [
          0.1275,
          0.3066,
          0.8513,
          0.5
        ],
        "metallicFactor": 0.1,
        "roughnessFactor": 0.9
      },
      "name": "Translucent_Glass_Blue",
      "doubleSided": true,
      "alphaMode": "BLEND"
    },
    {
      "pbrMetallicRoughness": {
        "baseColorFactor": [
          0.6121,
          0.6121,
          0.3736,
          1.0
        ],
        "metallicFactor": 0.1,
        "roughnessFactor": 0.9
      },
      "name": "Color_E10",
      "doubleSided": true
    },
    {
      "pbrMetallicRoughness": {
        "baseColorTexture": {
          "index": 0
        },
        "roughnessFactor": 0.1
      },
      "name": "[Metal_Aluminum_Anodized]1"
    }
  ],
  "images": [
    {
      "bufferView": 0,
      "mimeType": "image/jpeg"
    }
  ],
  "textures": [
    {
      "source": 0,
      "sampler": 0
    }
  ],
  "meshes": [
    {
      "primitives": [
        {
          "attributes": {
            "POSITION": 0,
            "NORMAL": 1
          },
          "indices": 5,
          "mode": 4,
          "material": 0
        },
        {
          "attributes": {
            "POSITION": 0,
            "NORMAL": 1
          },
          "indices": 6,
          "mode": 4,
          "material": 1
        },
        {
          "attributes": {
            "POSITION": 0,
            "NORMAL": 1
          },
          "indices": 7,
          "mode": 4,
          "material": 2
        },
        {
          "attributes": {
            "POSITION": 0,
            "NORMAL": 1
          },
          "indices": 8,
          "mode": 4,
          "material": 3
        },
        {
          "attributes": {
            "POSITION": 0,
            "NORMAL": 1
          },
          "indices": 9,
          "mode": 4,
          "material": 4
        }
      ]
    },
    {
      "primitives": [
        {
          "attributes": {
            "POSITION": 0,
            "NORMAL": 1
          },
          "indices": 10,
          "mode": 4,
          "material": 3
        }
      ]
    },
    {
      "primitives": [
        {
          "attributes": {
            "POSITION": 0,
            "NORMAL": 1
          },
          "indices": 11,
          "mode": 4,
          "material": 5
        }
      ]
    },
    {
      "primitives": [
        {
          "attributes": {
            "POSITION": 0,
            "NORMAL": 1
          },
          "indices": 12,
          "mode": 4,
          "material": 6
        },
        {
          "attributes": {
            "POSITION": 0,
            "NORMAL": 1
          },
          "indices": 13,
          "mode": 4,
          "material": 7
        }
      ]
    },
    {
      "primitives": [
        {
          "attributes": {
            "POSITION": 0,
            "NORMAL": 1
          },
          "indices": 14,
          "mode": 4,
          "material": 6
        }
      ]
    },
    {
      "primitives": [
        {
          "attributes": {
            "POSITION": 0,
            "NORMAL": 1
          },
          "indices": 15,
          "mode": 4,
          "material": 6
        }
      ]
    },
    {
      "primitives": [
        {
          "attributes": {
            "POSITION": 0,
            "NORMAL": 1
          },
          "indices": 16,
          "mode": 4,
          "material": 6
        }
      ]
    },
    {
      "primitives": [
        {
          "attributes": {
            "POSITION": 0,
            "NORMAL": 1
          },
          "indices": 17,
          "mode": 4,
          "material": 6
        }
      ]
    },
    {
      "primitives": [
        {
          "attributes": {
            "POSITION": 0,
            "NORMAL": 1
          },
          "indices": 18,
          "mode": 4,
          "material": 6
        }
      ]
    },
    {
      "primitives": [
        {
          "attributes": {
            "POSITION": 0,
            "NORMAL": 1
          },
          "indices": 19,
          "mode": 4,
          "material": 0
        },
        {
          "attributes": {
            "POSITION": 0,
            "NORMAL": 1
          },
          "indices": 20,
          "mode": 4,
          "material": 1
        },
        {
          "attributes": {
            "POSITION": 0,
            "NORMAL": 1
          },
          "indices": 21,
          "mode": 4,
          "material": 2
        },
        {
          "attributes": {
            "POSITION": 0,
            "NORMAL": 1
          },
          "indices": 22,
          "mode": 4,
          "material": 3
        },
        {
          "attributes": {
            "POSITION": 0,
            "NORMAL": 1
          },
          "indices": 23,
          "mode": 4,
          "material": 4
        }
      ]
    },
    {
      "primitives": [
        {
          "attributes": {
            "POSITION": 0,
            "NORMAL": 1
          },
          "indices": 24,
          "mode": 4,
          "material": 3
        }
      ]
    },
    {
      "primitives": [
        {
          "attributes": {
            "POSITION": 0,
            "NORMAL": 1
          },
          "indices": 25,
          "mode": 4,
          "material": 5
        }
      ]
    },
    {
      "primitives": [
        {
          "attributes": {
            "POSITION": 0,
            "NORMAL": 1
          },
          "indices": 26,
          "mode": 4,
          "material": 6
        },
        {
          "attributes": {
            "POSITION": 0,
            "NORMAL": 1
          },
          "indices": 27,
          "mode": 4,
          "material": 7
        }
      ]
    },
    {
      "primitives": [
        {
          "attributes": {
            "POSITION": 0,
            "NORMAL": 1
          },
          "indices": 28,
          "mode": 4,
          "material": 6
        }
      ]
    },
    {
      "primitives": [
        {
          "attributes": {
            "POSITION": 0,
            "NORMAL": 1
          },
          "indices": 29,
          "mode": 4,
          "material": 6
        }
      ]
    },
    {
      "primitives": [
        {
          "attributes": {
            "POSITION": 0,
            "NORMAL": 1
          },
          "indices": 30,
          "mode": 4,
          "material": 6
        }
      ]
    },
    {
      "primitives": [
        {
          "attributes": {
            "POSITION": 0,
            "NORMAL": 1
          },
          "indices": 31,
          "mode": 4,
          "material": 8
        }
      ]
    },
    {
      "primitives": [
        {
          "attributes": {
            "POSITION": 2,
            "NORMAL": 3,
            "TEXCOORD_0": 4
          },
          "indices": 32,
          "mode": 4,
          "material": 9
        }
      ]
    },
    {
      "primitives": [
        {
          "attributes": {
            "POSITION": 0,
            "NORMAL": 1
          },
          "indices": 33,
          "mode": 4,
          "material": 6
        }
      ]
    }
  ],
  "accessors": [
    {
      "bufferView": 1,
      "componentType": 5126,
      "count": 35736,
      "type": "VEC3",
      "min": [
        0.0,
        0.03999999999999943,
        -0.6
      ],
      "max": [
        0.61,
        1.216959344220024,
        9.797174393178824e-17
      ]
    },
    {
      "bufferView": 2,
      "componentType": 5126,
      "count": 35736,
      "type": "VEC3",
      "min": [
        -1.0,
        -1.0,
        -1.0
      ],
      "max": [
        1.0,
        1.0,
        1.0
      ]
    },
    {
      "bufferView": 3,
      "componentType": 5126,
      "count": 225,
      "type": "VEC3",
      "min": [
        0.0,
        -3.6739403974420595e-17,
        -0.6
      ],
      "max": [
        0.61,
        0.84,
        1.4940690949597706e-16
      ]
    },
    {
      "bufferView": 4,
      "componentType": 5126,
      "count": 225,
      "type": "VEC3",
      "min": [
        -1.0,
        -1.0,
        -1.0
      ],
      "max": [
        1.0,
        1.0,
        1.0
      ]
    },
    {
      "bufferView": 5,
      "componentType": 5126,
      "count": 225,
      "type": "VEC2",
      "min": [
        -24.01574803149606,
        -32.070866141732324
      ],
      "max": [
        24.01574803149606,
        1.0
      ]
    },
    {
      "bufferView": 6,
      "componentType": 5123,
      "count": 3792,
      "type": "SCALAR"
    },
    {
      "bufferView": 6,
      "componentType": 5123,
      "count": 3237,
      "type": "SCALAR",
      "byteOffset": 7584
    },
    {
      "bufferView": 6,
      "componentType": 5123,
      "count": 156,
      "type": "SCALAR",
      "byteOffset": 14058
    },
    {
      "bufferView": 6,
      "componentType": 5123,
      "count": 138,
      "type": "SCALAR",
      "byteOffset": 14370
    },
    {
      "bufferView": 6,
      "componentType": 5123,
      "count": 75,
      "type": "SCALAR",
      "byteOffset": 14646
    },
    {
      "bufferView": 6,
      "componentType": 5123,
      "count": 19980,
      "type": "SCALAR",
      "byteOffset": 14796
    },
    {
      "bufferView": 6,
      "componentType": 5123,
      "count": 4527,
      "type": "SCALAR",
      "byteOffset": 54756
    },
    {
      "bufferView": 6,
      "componentType": 5123,
      "count": 819,
      "type": "SCALAR",
      "byteOffset": 63810
    },
    {
      "bufferView": 6,
      "componentType": 5123,
      "count": 747,
      "type": "SCALAR",
      "byteOffset": 65448
    },
    {
      "bufferView": 6,
      "componentType": 5123,
      "count": 3072,
      "type": "SCALAR",
      "byteOffset": 66942
    },
    {
      "bufferView": 6,
      "componentType": 5123,
      "count": 1665,
      "type": "SCALAR",
      "byteOffset": 73086
    },
    {
      "bufferView": 6,
      "componentType": 5123,
      "count": 9492,
      "type": "SCALAR",
      "byteOffset": 76416
    },
    {
      "bufferView": 6,
      "componentType": 5123,
      "count": 84,
      "type": "SCALAR",
      "byteOffset": 95400
    },
    {
      "bufferView": 6,
      "componentType": 5123,
      "count": 1452,
      "type": "SCALAR",
      "byteOffset": 95568
    },
    {
      "bufferView": 6,
      "componentType": 5123,
      "count": 3792,
      "type": "SCALAR",
      "byteOffset": 98472
    },
    {
      "bufferView": 6,
      "componentType": 5123,
      "count": 3237,
      "type": "SCALAR",
      "byteOffset": 106056
    },
    {
      "bufferView": 6,
      "componentType": 5123,
      "count": 156,
      "type": "SCALAR",
      "byteOffset": 112530
    },
    {
      "bufferView": 6,
      "componentType": 5123,
      "count": 138,
      "type": "SCALAR",
      "byteOffset": 112842
    },
    {
      "bufferView": 6,
      "componentType": 5123,
      "count": 75,
      "type": "SCALAR",
      "byteOffset": 113118
    },
    {
      "bufferView": 6,
      "componentType": 5123,
      "count": 19980,
      "type": "SCALAR",
      "byteOffset": 113268
    },
    {
      "bufferView": 6,
      "componentType": 5123,
      "count": 4527,
      "type": "SCALAR",
      "byteOffset": 153228
    },
    {
      "bufferView": 6,
      "componentType": 5123,
      "count": 819,
      "type": "SCALAR",
      "byteOffset": 162282
    },
    {
      "bufferView": 6,
      "componentType": 5123,
      "count": 747,
      "type": "SCALAR",
      "byteOffset": 163920
    },
    {
      "bufferView": 6,
      "componentType": 5123,
      "count": 3072,
      "type": "SCALAR",
      "byteOffset": 165414
    },
    {
      "bufferView": 6,
      "componentType": 5123,
      "count": 1665,
      "type": "SCALAR",
      "byteOffset": 171558
    },
    {
      "bufferView": 6,
      "componentType": 5123,
      "count": 9492,
      "type": "SCALAR",
      "byteOffset": 174888
    },
    {
      "bufferView": 6,
      "componentType": 5123,
      "count": 282,
      "type": "SCALAR",
      "byteOffset": 193872
    },
    {
      "bufferView": 7,
      "componentType": 5121,
      "count": 528,
      "type": "SCALAR"
    },
    {
      "bufferView": 6,
      "componentType": 5123,
      "count": 498,
      "type": "SCALAR",
      "byteOffset": 194436
    }
  ],
  "bufferViews": [
    {
      "buffer": 0,
      "byteLength": 2508
    },
    {
      "buffer": 0,
      "byteOffset": 2508,
      "byteLength": 428832,
      "target": 34962,
      "byteStride": 12
    },
    {
      "buffer": 0,
      "byteOffset": 431340,
      "byteLength": 428832,
      "target": 34962,
      "byteStride": 12
    },
    {
      "buffer": 0,
      "byteOffset": 860172,
      "byteLength": 2700,
      "target": 34962,
      "byteStride": 12
    },
    {
      "buffer": 0,
      "byteOffset": 862872,
      "byteLength": 2700,
      "target": 34962,
      "byteStride": 12
    },
    {
      "buffer": 0,
      "byteOffset": 865576,
      "byteLength": 1800,
      "target": 34962,
      "byteStride": 8
    },
    {
      "buffer": 0,
      "byteOffset": 867376,
      "byteLength": 195432,
      "target": 34963
    },
    {
      "buffer": 0,
      "byteOffset": 1062808,
      "byteLength": 528,
      "target": 34963
    }
  ],
  "buffers": [
    {
      "uri": "data:application/octet-stream;base64,",
      "byteLength": 1063336
    }
  ]
}