{
  "asset": {
    "version": "2.0",
    "generator": "Sketchup glTF Exporter v1.2.6 by Centaur"
  },
  "scene": 0,
  "scenes": [
    {
      "nodes": [
        0
      ]
    }
  ],
  "samplers": [
    {
    }
  ],
  "nodes": [
    {
      "name": "root",
      "children": [
        1,
        15
      ]
    },
    {
      "children": [
        2
      ]
    },
    {
      "children": [
        3
      ]
    },
    {
      "children": [
        4
      ]
    },
    {
      "children": [
        5,
        6,
        7,
        13
      ]
    },
    {
      "mesh": 0
    },
    {
      "name": "RaccordDn50",
      "mesh": 1
    },
    {
      "name": "PORTE#1",
      "children": [
        8,
        12
      ]
    },
    {
      "children": [
        9,
        10,
        11
      ],
      "mesh": 5
    },
    {
      "mesh": 2
    },
    {
      "mesh": 3
    },
    {
      "mesh": 4
    },
    {
      "mesh": 6
    },
    {
      "children": [
        14
      ]
    },
    {
      "name": "CuveADDITIFS#1",
      "mesh": 7
    },
    {
      "mesh": 8
    }
  ],
  "materials": [
    {
      "pbrMetallicRoughness": {
        "baseColorFactor": [
          0.5356,
          0.5356,
          0.5356,
          1.0
        ],
        "metallicFactor": 0.1,
        "roughnessFactor": 0.9
      },
      "name": "<Silver>"
    },
    {
      "pbrMetallicRoughness": {
        "baseColorFactor": [
          0.2176,
          0.2176,
          0.2176,
          1.0
        ],
        "metallicFactor": 0.1,
        "roughnessFactor": 0.9
      },
      "name": "default material",
      "doubleSided": true
    },
    {
      "pbrMetallicRoughness": {
        "baseColorFactor": [
          1.0,
          1.0,
          1.0,
          1.0
        ],
        "metallicFactor": 0.1,
        "roughnessFactor": 0.9
      },
      "name": "Color_000",
      "doubleSided": true
    },
    {
      "pbrMetallicRoughness": {
        "baseColorTexture": {
          "index": 0
        },
        "roughnessFactor": 0.1
      },
      "name": "[Metal_Aluminum_Anodized]1"
    }
  ],
  "images": [
    {
      "bufferView": 0,
      "mimeType": "image/jpeg"
    }
  ],
  "textures": [
    {
      "source": 0,
      "sampler": 0
    }
  ],
  "meshes": [
    {
      "primitives": [
        {
          "attributes": {
            "POSITION": 0,
            "NORMAL": 1
          },
          "indices": 5,
          "mode": 4,
          "material": 0
        }
      ]
    },
    {
      "primitives": [
        {
          "attributes": {
            "POSITION": 0,
            "NORMAL": 1
          },
          "indices": 6,
          "mode": 4,
          "material": 0
        }
      ]
    },
    {
      "primitives": [
        {
          "attributes": {
            "POSITION": 0,
            "NORMAL": 1
          },
          "indices": 7,
          "mode": 4,
          "material": 1
        }
      ]
    },
    {
      "primitives": [
        {
          "attributes": {
            "POSITION": 0,
            "NORMAL": 1
          },
          "indices": 8,
          "mode": 4,
          "material": 1
        }
      ]
    },
    {
      "primitives": [
        {
          "attributes": {
            "POSITION": 0,
            "NORMAL": 1
          },
          "indices": 9,
          "mode": 4,
          "material": 1
        }
      ]
    },
    {
      "primitives": [
        {
          "attributes": {
            "POSITION": 0,
            "NORMAL": 1
          },
          "indices": 10,
          "mode": 4,
          "material": 1
        }
      ]
    },
    {
      "primitives": [
        {
          "attributes": {
            "POSITION": 0,
            "NORMAL": 1
          },
          "indices": 11,
          "mode": 4,
          "material": 1
        }
      ]
    },
    {
      "primitives": [
        {
          "attributes": {
            "POSITION": 0,
            "NORMAL": 1
          },
          "indices": 12,
          "mode": 4,
          "material": 2
        },
        {
          "attributes": {
            "POSITION": 0,
            "NORMAL": 1
          },
          "indices": 13,
          "mode": 4,
          "material": 0
        }
      ]
    },
    {
      "primitives": [
        {
          "attributes": {
            "POSITION": 2,
            "NORMAL": 3,
            "TEXCOORD_0": 4
          },
          "indices": 14,
          "mode": 4,
          "material": 3
        }
      ]
    }
  ],
  "accessors": [
    {
      "bufferView": 1,
      "componentType": 5126,
      "count": 3002,
      "type": "VEC3",
      "min": [
        0.037752642425782246,
        0.14802715583917392,
        -1.2394139306390295
      ],
      "max": [
        1.225138465975546,
        1.3926753618950733,
        -0.05202810708926697
      ]
    },
    {
      "bufferView": 2,
      "componentType": 5126,
      "count": 3002,
      "type": "VEC3",
      "min": [
        -1.0,
        -1.0,
        -1.0
      ],
      "max": [
        1.0,
        1.0,
        1.0
      ]
    },
    {
      "bufferView": 3,
      "componentType": 5126,
      "count": 442,
      "type": "VEC3",
      "min": [
        2.9995195653237743e-34,
        4.267017012247166e-17,
        -1.25
      ],
      "max": [
        1.2500000000000004,
        0.34,
        3.0616169978683836e-16
      ]
    },
    {
      "bufferView": 4,
      "componentType": 5126,
      "count": 442,
      "type": "VEC3",
      "min": [
        -1.0,
        -1.0,
        -1.0
      ],
      "max": [
        1.0,
        1.0,
        1.0
      ]
    },
    {
      "bufferView": 5,
      "componentType": 5126,
      "count": 442,
      "type": "VEC2",
      "min": [
        -49.21259842519686,
        -48.21259842519685
      ],
      "max": [
        49.21259842519686,
        1.0
      ]
    },
    {
      "bufferView": 6,
      "componentType": 5123,
      "count": 132,
      "type": "SCALAR"
    },
    {
      "bufferView": 6,
      "componentType": 5123,
      "count": 804,
      "type": "SCALAR",
      "byteOffset": 264
    },
    {
      "bufferView": 6,
      "componentType": 5123,
      "count": 846,
      "type": "SCALAR",
      "byteOffset": 1872
    },
    {
      "bufferView": 6,
      "componentType": 5123,
      "count": 846,
      "type": "SCALAR",
      "byteOffset": 3564
    },
    {
      "bufferView": 6,
      "componentType": 5123,
      "count": 2118,
      "type": "SCALAR",
      "byteOffset": 5256
    },
    {
      "bufferView": 6,
      "componentType": 5123,
      "count": 5256,
      "type": "SCALAR",
      "byteOffset": 9492
    },
    {
      "bufferView": 6,
      "componentType": 5123,
      "count": 210,
      "type": "SCALAR",
      "byteOffset": 20004
    },
    {
      "bufferView": 6,
      "componentType": 5123,
      "count": 510,
      "type": "SCALAR",
      "byteOffset": 20424
    },
    {
      "bufferView": 6,
      "componentType": 5123,
      "count": 546,
      "type": "SCALAR",
      "byteOffset": 21444
    },
    {
      "bufferView": 7,
      "componentType": 5123,
      "count": 978,
      "type": "SCALAR"
    }
  ],
  "bufferViews": [
    {
      "buffer": 0,
      "byteLength": 2508
    },
    {
      "buffer": 0,
      "byteOffset": 2508,
      "byteLength": 36024,
      "target": 34962,
      "byteStride": 12
    },
    {
      "buffer": 0,
      "byteOffset": 38532,
      "byteLength": 36024,
      "target": 34962,
      "byteStride": 12
    },
    {
      "buffer": 0,
      "byteOffset": 74556,
      "byteLength": 5304,
      "target": 34962,
      "byteStride": 12
    },
    {
      "buffer": 0,
      "byteOffset": 79860,
      "byteLength": 5304,
      "target": 34962,
      "byteStride": 12
    },
    {
      "buffer": 0,
      "byteOffset": 85168,
      "byteLength": 3536,
      "target": 34962,
      "byteStride": 8
    },
    {
      "buffer": 0,
      "byteOffset": 88704,
      "byteLength": 22536,
      "target": 34963
    },
    {
      "buffer": 0,
      "byteOffset": 111240,
      "byteLength": 1956,
      "target": 34963
    }
  ],
  "buffers": [
    {
      "uri": "data:application/octet-stream;base64,",
      "byteLength": 113196
    }
  ]
}