{
  "asset": {
    "version": "2.0",
    "generator": "Sketchup glTF Exporter v1.2.6 by Centaur"
  },
  "scene": 0,
  "scenes": [
    {
      "nodes": [
        0
      ]
    }
  ],
  "samplers": [
    {
    }
  ],
  "nodes": [
    {
      "name": "root",
      "children": [
        1,
        3
      ]
    },
    {
      "children": [
        2
      ]
    },
    {
      "name": "aversol",
      "mesh": 0
    },
    {
      "children": [
        4
      ],
      "mesh": 2
    },
    {
      "children": [
        5
      ]
    },
    {
      "mesh": 1
    }
  ],
  "materials": [
    {
      "pbrMetallicRoughness": {
        "baseColorFactor": [
          0.2176,
          0.2176,
          0.2176,
          1.0
        ],
        "metallicFactor": 0.1,
        "roughnessFactor": 0.9
      },
      "name": "default material",
      "doubleSided": true
    },
    {
      "pbrMetallicRoughness": {
        "baseColorTexture": {
          "index": 0
        },
        "roughnessFactor": 0.1
      },
      "name": "[Metal_Rough]2"
    }
  ],
  "images": [
    {
      "bufferView": 0,
      "mimeType": "image/jpeg"
    }
  ],
  "textures": [
    {
      "source": 0,
      "sampler": 0
    }
  ],
  "meshes": [
    {
      "primitives": [
        {
          "attributes": {
            "POSITION": 0,
            "NORMAL": 1
          },
          "indices": 5,
          "mode": 4,
          "material": 0
        }
      ]
    },
    {
      "primitives": [
        {
          "attributes": {
            "POSITION": 0,
            "NORMAL": 1
          },
          "indices": 6,
          "mode": 4,
          "material": 0
        }
      ]
    },
    {
      "primitives": [
        {
          "attributes": {
            "POSITION": 2,
            "NORMAL": 3,
            "TEXCOORD_0": 4
          },
          "indices": 7,
          "mode": 4,
          "material": 1
        }
      ]
    }
  ],
  "accessors": [
    {
      "bufferView": 1,
      "componentType": 5126,
      "count": 799,
      "type": "VEC3",
      "min": [
        0.1868621484397907,
        0.1699999999998974,
        -1.6131378515604409
      ],
      "max": [
        1.6131378515603438,
        1.6298778883423344,
        -0.18686214843988605
      ]
    },
    {
      "bufferView": 2,
      "componentType": 5126,
      "count": 799,
      "type": "VEC3",
      "min": [
        -1.0,
        -0.9999999999999999,
        -1.0
      ],
      "max": [
        1.0,
        1.0,
        1.0
      ]
    },
    {
      "bufferView": 3,
      "componentType": 5126,
      "count": 328,
      "type": "VEC3",
      "min": [
        1.9984014443252818e-15,
        -1.1021821192328514e-16,
        -1.800000000000381
      ],
      "max": [
        1.800000000000381,
        0.17000000000193252,
        -1.3322676295501878e-15
      ]
    },
    {
      "bufferView": 4,
      "componentType": 5126,
      "count": 328,
      "type": "VEC3",
      "min": [
        -1.0,
        -1.0,
        -1.0
      ],
      "max": [
        1.0,
        1.0,
        1.0
      ]
    },
    {
      "bufferView": 5,
      "componentType": 5126,
      "count": 328,
      "type": "VEC2",
      "min": [
        -70.86614173228348,
        -69.8661417322837
      ],
      "max": [
        70.8661417322843,
        1.0000000000000036
      ]
    },
    {
      "bufferView": 6,
      "componentType": 5123,
      "count": 1776,
      "type": "SCALAR"
    },
    {
      "bufferView": 6,
      "componentType": 5123,
      "count": 372,
      "type": "SCALAR",
      "byteOffset": 3552
    },
    {
      "bufferView": 7,
      "componentType": 5123,
      "count": 654,
      "type": "SCALAR"
    }
  ],
  "bufferViews": [
    {
      "buffer": 0,
      "byteLength": 1218
    },
    {
      "buffer": 0,
      "byteOffset": 1224,
      "byteLength": 9588,
      "target": 34962,
      "byteStride": 12
    },
    {
      "buffer": 0,
      "byteOffset": 10812,
      "byteLength": 9588,
      "target": 34962,
      "byteStride": 12
    },
    {
      "buffer": 0,
      "byteOffset": 20400,
      "byteLength": 3936,
      "target": 34962,
      "byteStride": 12
    },
    {
      "buffer": 0,
      "byteOffset": 24336,
      "byteLength": 3936,
      "target": 34962,
      "byteStride": 12
    },
    {
      "buffer": 0,
      "byteOffset": 28272,
      "byteLength": 2624,
      "target": 34962,
      "byteStride": 8
    },
    {
      "buffer": 0,
      "byteOffset": 30896,
      "byteLength": 4296,
      "target": 34963
    },
    {
      "buffer": 0,
      "byteOffset": 35192,
      "byteLength": 1308,
      "target": 34963
    }
  ],
  "buffers": [
    {
      "uri": "data:application/octet-stream;base64,",
      "byteLength": 36500
    }
  ]
}