{
  "asset": {
    "version": "2.0",
    "generator": "Sketchup glTF Exporter v1.2.6 by Centaur"
  },
  "scene": 0,
  "scenes": [
    {
      "nodes": [
        0
      ]
    }
  ],
  "samplers": [
    {
    }
  ],
  "nodes": [
    {
      "name": "root",
      "children": [
        1
      ]
    },
    {
      "children": [
        2,
        3,
        6,
        7,
        8,
        18,
        28
      ]
    },
    {
      "mesh": 0
    },
    {
      "children": [
        4
      ],
      "mesh": 3
    },
    {
      "children": [
        5
      ],
      "mesh": 2
    },
    {
      "mesh": 1
    },
    {
      "mesh": 4
    },
    {
      "name": "tanks combined#2",
      "mesh": 5
    },
    {
      "name": "PUMP#3",
      "children": [
        9,
        14
      ]
    },
    {
      "children": [
        10,
        11,
        12,
        13
      ]
    },
    {
      "name": "Group#1",
      "mesh": 6
    },
    {
      "name": "Group#3",
      "mesh": 7
    },
    {
      "name": "Group#4",
      "mesh": 8
    },
    {
      "name": "Group#186",
      "mesh": 9
    },
    {
      "name": "Component#49",
      "children": [
        15,
        16,
        17
      ]
    },
    {
      "name": "Group#5",
      "mesh": 10
    },
    {
      "name": "Group#4",
      "mesh": 11
    },
    {
      "name": "Group#1",
      "mesh": 12
    },
    {
      "name": "PUMP#3",
      "children": [
        19,
        24
      ]
    },
    {
      "children": [
        20,
        21,
        22,
        23
      ]
    },
    {
      "name": "Group#1",
      "mesh": 13
    },
    {
      "name": "Group#3",
      "mesh": 14
    },
    {
      "name": "Group#4",
      "mesh": 15
    },
    {
      "name": "Group#186",
      "mesh": 16
    },
    {
      "name": "Component#49",
      "children": [
        25,
        26,
        27
      ]
    },
    {
      "name": "Group#5",
      "mesh": 17
    },
    {
      "name": "Group#4",
      "mesh": 18
    },
    {
      "name": "Group#1",
      "mesh": 19
    },
    {
      "mesh": 20
    }
  ],
  "materials": [
    {
      "pbrMetallicRoughness": {
        "baseColorFactor": [
          0.6121,
          0.6121,
          0.3736,
          1.0
        ],
        "metallicFactor": 0.1,
        "roughnessFactor": 0.9
      },
      "name": "Color_E10"
    },
    {
      "pbrMetallicRoughness": {
        "baseColorFactor": [
          0.2176,
          0.2176,
          0.2176,
          1.0
        ],
        "metallicFactor": 0.1,
        "roughnessFactor": 0.9
      },
      "name": "default material",
      "doubleSided": true
    },
    {
      "pbrMetallicRoughness": {
        "baseColorTexture": {
          "index": 0
        },
        "roughnessFactor": 0.1
      },
      "name": "[Metal_Aluminum_Anodized]1"
    },
    {
      "pbrMetallicRoughness": {
        "baseColorFactor": [
          1.0,
          0.0461,
          0.0,
          1.0
        ],
        "metallicFactor": 0.1,
        "roughnessFactor": 0.9
      },
      "name": "Color_B01"
    },
    {
      "pbrMetallicRoughness": {
        "baseColorFactor": [
          0.0072,
          0.006,
          0.0084,
          1.0
        ],
        "metallicFactor": 0.1,
        "roughnessFactor": 0.9
      },
      "name": "RAL9017-Verkehrsschwarz"
    },
    {
      "pbrMetallicRoughness": {
        "baseColorFactor": [
          0.9406,
          0.949,
          0.9658,
          1.0
        ],
        "metallicFactor": 0.1,
        "roughnessFactor": 0.9
      },
      "name": "RAL9003-Signalweiss",
      "doubleSided": true
    },
    {
      "pbrMetallicRoughness": {
        "baseColorFactor": [
          0.006,
          0.0254,
          0.0963,
          1.0
        ],
        "metallicFactor": 0.1,
        "roughnessFactor": 0.9
      },
      "name": "RAL5003-Saphirblau",
      "doubleSided": true
    },
    {
      "pbrMetallicRoughness": {
        "baseColorFactor": [
          0.9075,
          0.9075,
          0.8513,
          1.0
        ],
        "metallicFactor": 0.1,
        "roughnessFactor": 0.9
      },
      "name": "RAL9010-Reinweiss",
      "doubleSided": true
    },
    {
      "pbrMetallicRoughness": {
        "baseColorFactor": [
          0.0824,
          0.1011,
          0.1166,
          1.0
        ],
        "metallicFactor": 0.1,
        "roughnessFactor": 0.9
      },
      "name": "RAL7011-Eisengrau"
    },
    {
      "pbrMetallicRoughness": {
        "baseColorFactor": [
          0.1275,
          0.3066,
          0.8513,
          0.5
        ],
        "metallicFactor": 0.1,
        "roughnessFactor": 0.9
      },
      "name": "Translucent_Glass_Blue",
      "doubleSided": true,
      "alphaMode": "BLEND"
    },
    {
      "pbrMetallicRoughness": {
        "baseColorFactor": [
          0.0915,
          0.0915,
          0.0915,
          1.0
        ],
        "metallicFactor": 0.1,
        "roughnessFactor": 0.9
      },
      "name": "Color_006"
    }
  ],
  "images": [
    {
      "bufferView": 0,
      "mimeType": "image/jpeg"
    }
  ],
  "textures": [
    {
      "source": 0,
      "sampler": 0
    }
  ],
  "meshes": [
    {
      "primitives": [
        {
          "attributes": {
            "POSITION": 0,
            "NORMAL": 1
          },
          "indices": 5,
          "mode": 4,
          "material": 0
        }
      ]
    },
    {
      "primitives": [
        {
          "attributes": {
            "POSITION": 0,
            "NORMAL": 1
          },
          "indices": 6,
          "mode": 4,
          "material": 1
        }
      ]
    },
    {
      "primitives": [
        {
          "attributes": {
            "POSITION": 0,
            "NORMAL": 1
          },
          "indices": 7,
          "mode": 4,
          "material": 1
        }
      ]
    },
    {
      "primitives": [
        {
          "attributes": {
            "POSITION": 0,
            "NORMAL": 1
          },
          "indices": 8,
          "mode": 4,
          "material": 0
        }
      ]
    },
    {
      "primitives": [
        {
          "attributes": {
            "POSITION": 2,
            "NORMAL": 3,
            "TEXCOORD_0": 4
          },
          "indices": 9,
          "mode": 4,
          "material": 2
        }
      ]
    },
    {
      "primitives": [
        {
          "attributes": {
            "POSITION": 0,
            "NORMAL": 1
          },
          "indices": 10,
          "mode": 4,
          "material": 1
        }
      ]
    },
    {
      "primitives": [
        {
          "attributes": {
            "POSITION": 0,
            "NORMAL": 1
          },
          "indices": 11,
          "mode": 4,
          "material": 3
        },
        {
          "attributes": {
            "POSITION": 0,
            "NORMAL": 1
          },
          "indices": 12,
          "mode": 4,
          "material": 4
        },
        {
          "attributes": {
            "POSITION": 0,
            "NORMAL": 1
          },
          "indices": 13,
          "mode": 4,
          "material": 5
        },
        {
          "attributes": {
            "POSITION": 0,
            "NORMAL": 1
          },
          "indices": 14,
          "mode": 4,
          "material": 6
        },
        {
          "attributes": {
            "POSITION": 0,
            "NORMAL": 1
          },
          "indices": 15,
          "mode": 4,
          "material": 7
        }
      ]
    },
    {
      "primitives": [
        {
          "attributes": {
            "POSITION": 0,
            "NORMAL": 1
          },
          "indices": 16,
          "mode": 4,
          "material": 6
        }
      ]
    },
    {
      "primitives": [
        {
          "attributes": {
            "POSITION": 0,
            "NORMAL": 1
          },
          "indices": 17,
          "mode": 4,
          "material": 8
        }
      ]
    },
    {
      "primitives": [
        {
          "attributes": {
            "POSITION": 0,
            "NORMAL": 1
          },
          "indices": 18,
          "mode": 4,
          "material": 1
        },
        {
          "attributes": {
            "POSITION": 0,
            "NORMAL": 1
          },
          "indices": 19,
          "mode": 4,
          "material": 9
        }
      ]
    },
    {
      "primitives": [
        {
          "attributes": {
            "POSITION": 0,
            "NORMAL": 1
          },
          "indices": 20,
          "mode": 4,
          "material": 1
        }
      ]
    },
    {
      "primitives": [
        {
          "attributes": {
            "POSITION": 0,
            "NORMAL": 1
          },
          "indices": 21,
          "mode": 4,
          "material": 1
        }
      ]
    },
    {
      "primitives": [
        {
          "attributes": {
            "POSITION": 0,
            "NORMAL": 1
          },
          "indices": 22,
          "mode": 4,
          "material": 1
        }
      ]
    },
    {
      "primitives": [
        {
          "attributes": {
            "POSITION": 0,
            "NORMAL": 1
          },
          "indices": 23,
          "mode": 4,
          "material": 3
        },
        {
          "attributes": {
            "POSITION": 0,
            "NORMAL": 1
          },
          "indices": 24,
          "mode": 4,
          "material": 4
        },
        {
          "attributes": {
            "POSITION": 0,
            "NORMAL": 1
          },
          "indices": 25,
          "mode": 4,
          "material": 5
        },
        {
          "attributes": {
            "POSITION": 0,
            "NORMAL": 1
          },
          "indices": 26,
          "mode": 4,
          "material": 6
        },
        {
          "attributes": {
            "POSITION": 0,
            "NORMAL": 1
          },
          "indices": 27,
          "mode": 4,
          "material": 7
        }
      ]
    },
    {
      "primitives": [
        {
          "attributes": {
            "POSITION": 0,
            "NORMAL": 1
          },
          "indices": 28,
          "mode": 4,
          "material": 6
        }
      ]
    },
    {
      "primitives": [
        {
          "attributes": {
            "POSITION": 0,
            "NORMAL": 1
          },
          "indices": 29,
          "mode": 4,
          "material": 8
        }
      ]
    },
    {
      "primitives": [
        {
          "attributes": {
            "POSITION": 0,
            "NORMAL": 1
          },
          "indices": 30,
          "mode": 4,
          "material": 1
        },
        {
          "attributes": {
            "POSITION": 0,
            "NORMAL": 1
          },
          "indices": 31,
          "mode": 4,
          "material": 9
        }
      ]
    },
    {
      "primitives": [
        {
          "attributes": {
            "POSITION": 0,
            "NORMAL": 1
          },
          "indices": 32,
          "mode": 4,
          "material": 1
        }
      ]
    },
    {
      "primitives": [
        {
          "attributes": {
            "POSITION": 0,
            "NORMAL": 1
          },
          "indices": 33,
          "mode": 4,
          "material": 1
        }
      ]
    },
    {
      "primitives": [
        {
          "attributes": {
            "POSITION": 0,
            "NORMAL": 1
          },
          "indices": 34,
          "mode": 4,
          "material": 1
        }
      ]
    },
    {
      "primitives": [
        {
          "attributes": {
            "POSITION": 2,
            "NORMAL": 3,
            "TEXCOORD_0": 4
          },
          "indices": 35,
          "mode": 4,
          "material": 2
        },
        {
          "attributes": {
            "POSITION": 0,
            "NORMAL": 1
          },
          "indices": 36,
          "mode": 4,
          "material": 10
        }
      ]
    }
  ],
  "accessors": [
    {
      "bufferView": 1,
      "componentType": 5126,
      "count": 35776,
      "type": "VEC3",
      "min": [
        8.623618750305681e-33,
        0.03999999999999996,
        -0.9295000000000039
      ],
      "max": [
        0.7200000000000002,
        1.5269593442200247,
        5.204748896376251e-17
      ]
    },
    {
      "bufferView": 2,
      "componentType": 5126,
      "count": 35776,
      "type": "VEC3",
      "min": [
        -1.0,
        -1.0,
        -1.0
      ],
      "max": [
        1.0,
        1.0,
        1.0
      ]
    },
    {
      "bufferView": 3,
      "componentType": 5126,
      "count": 383,
      "type": "VEC3",
      "min": [
        0.0,
        -4.4087284769304716e-17,
        -0.9295000000000039
      ],
      "max": [
        0.7200000000000003,
        1.15,
        1.7634913907721887e-16
      ]
    },
    {
      "bufferView": 4,
      "componentType": 5126,
      "count": 383,
      "type": "VEC3",
      "min": [
        -1.0,
        -1.0,
        -1.0
      ],
      "max": [
        1.0,
        1.0,
        1.0
      ]
    },
    {
      "bufferView": 5,
      "componentType": 5126,
      "count": 383,
      "type": "VEC2",
      "min": [
        -28.34645669291339,
        -44.27559055118113
      ],
      "max": [
        28.34645669291339,
        1.0
      ]
    },
    {
      "bufferView": 6,
      "componentType": 5123,
      "count": 84,
      "type": "SCALAR"
    },
    {
      "bufferView": 6,
      "componentType": 5123,
      "count": 84,
      "type": "SCALAR",
      "byteOffset": 168
    },
    {
      "bufferView": 6,
      "componentType": 5123,
      "count": 1452,
      "type": "SCALAR",
      "byteOffset": 336
    },
    {
      "bufferView": 6,
      "componentType": 5123,
      "count": 234,
      "type": "SCALAR",
      "byteOffset": 3240
    },
    {
      "bufferView": 7,
      "componentType": 5123,
      "count": 648,
      "type": "SCALAR"
    },
    {
      "bufferView": 6,
      "componentType": 5123,
      "count": 498,
      "type": "SCALAR",
      "byteOffset": 3708
    },
    {
      "bufferView": 6,
      "componentType": 5123,
      "count": 3792,
      "type": "SCALAR",
      "byteOffset": 4704
    },
    {
      "bufferView": 6,
      "componentType": 5123,
      "count": 3237,
      "type": "SCALAR",
      "byteOffset": 12288
    },
    {
      "bufferView": 6,
      "componentType": 5123,
      "count": 156,
      "type": "SCALAR",
      "byteOffset": 18762
    },
    {
      "bufferView": 6,
      "componentType": 5123,
      "count": 138,
      "type": "SCALAR",
      "byteOffset": 19074
    },
    {
      "bufferView": 6,
      "componentType": 5123,
      "count": 75,
      "type": "SCALAR",
      "byteOffset": 19350
    },
    {
      "bufferView": 6,
      "componentType": 5123,
      "count": 19980,
      "type": "SCALAR",
      "byteOffset": 19500
    },
    {
      "bufferView": 6,
      "componentType": 5123,
      "count": 4527,
      "type": "SCALAR",
      "byteOffset": 59460
    },
    {
      "bufferView": 6,
      "componentType": 5123,
      "count": 819,
      "type": "SCALAR",
      "byteOffset": 68514
    },
    {
      "bufferView": 6,
      "componentType": 5123,
      "count": 747,
      "type": "SCALAR",
      "byteOffset": 70152
    },
    {
      "bufferView": 6,
      "componentType": 5123,
      "count": 3072,
      "type": "SCALAR",
      "byteOffset": 71646
    },
    {
      "bufferView": 6,
      "componentType": 5123,
      "count": 1665,
      "type": "SCALAR",
      "byteOffset": 77790
    },
    {
      "bufferView": 6,
      "componentType": 5123,
      "count": 9492,
      "type": "SCALAR",
      "byteOffset": 81120
    },
    {
      "bufferView": 6,
      "componentType": 5123,
      "count": 3792,
      "type": "SCALAR",
      "byteOffset": 100104
    },
    {
      "bufferView": 6,
      "componentType": 5123,
      "count": 3237,
      "type": "SCALAR",
      "byteOffset": 107688
    },
    {
      "bufferView": 6,
      "componentType": 5123,
      "count": 156,
      "type": "SCALAR",
      "byteOffset": 114162
    },
    {
      "bufferView": 6,
      "componentType": 5123,
      "count": 138,
      "type": "SCALAR",
      "byteOffset": 114474
    },
    {
      "bufferView": 6,
      "componentType": 5123,
      "count": 75,
      "type": "SCALAR",
      "byteOffset": 114750
    },
    {
      "bufferView": 6,
      "componentType": 5123,
      "count": 19980,
      "type": "SCALAR",
      "byteOffset": 114900
    },
    {
      "bufferView": 6,
      "componentType": 5123,
      "count": 4527,
      "type": "SCALAR",
      "byteOffset": 154860
    },
    {
      "bufferView": 6,
      "componentType": 5123,
      "count": 819,
      "type": "SCALAR",
      "byteOffset": 163914
    },
    {
      "bufferView": 6,
      "componentType": 5123,
      "count": 747,
      "type": "SCALAR",
      "byteOffset": 165552
    },
    {
      "bufferView": 6,
      "componentType": 5123,
      "count": 3072,
      "type": "SCALAR",
      "byteOffset": 167046
    },
    {
      "bufferView": 6,
      "componentType": 5123,
      "count": 1665,
      "type": "SCALAR",
      "byteOffset": 173190
    },
    {
      "bufferView": 6,
      "componentType": 5123,
      "count": 9492,
      "type": "SCALAR",
      "byteOffset": 176520
    },
    {
      "bufferView": 7,
      "componentType": 5123,
      "count": 186,
      "type": "SCALAR",
      "byteOffset": 1296
    },
    {
      "bufferView": 6,
      "componentType": 5123,
      "count": 24,
      "type": "SCALAR",
      "byteOffset": 195504
    }
  ],
  "bufferViews": [
    {
      "buffer": 0,
      "byteLength": 2508
    },
    {
      "buffer": 0,
      "byteOffset": 2508,
      "byteLength": 429312,
      "target": 34962,
      "byteStride": 12
    },
    {
      "buffer": 0,
      "byteOffset": 431820,
      "byteLength": 429312,
      "target": 34962,
      "byteStride": 12
    },
    {
      "buffer": 0,
      "byteOffset": 861132,
      "byteLength": 4596,
      "target": 34962,
      "byteStride": 12
    },
    {
      "buffer": 0,
      "byteOffset": 865728,
      "byteLength": 4596,
      "target": 34962,
      "byteStride": 12
    },
    {
      "buffer": 0,
      "byteOffset": 870328,
      "byteLength": 3064,
      "target": 34962,
      "byteStride": 8
    },
    {
      "buffer": 0,
      "byteOffset": 873392,
      "byteLength": 195552,
      "target": 34963
    },
    {
      "buffer": 0,
      "byteOffset": 1068944,
      "byteLength": 1668,
      "target": 34963
    }
  ],
  "buffers": [
    {
      "uri": "data:application/octet-stream;base64,",
      "byteLength": 1070612
    }
  ]
}