{
  "asset": {
    "version": "2.0",
    "generator": "Sketchup glTF Exporter v1.2.6 by Centaur"
  },
  "scene": 0,
  "scenes": [
    {
      "nodes": [
        0
      ]
    }
  ],
  "samplers": [
    {
    }
  ],
  "nodes": [
    {
      "name": "root",
      "children": [
        1
      ]
    },
    {
      "children": [
        2,
        3
      ]
    },
    {
      "mesh": 0
    },
    {
      "children": [
        4,
        7
      ],
      "mesh": 5
    },
    {
      "children": [
        5,
        6
      ]
    },
    {
      "mesh": 1
    },
    {
      "name": "RFSO#2",
      "mesh": 2
    },
    {
      "children": [
        8,
        9
      ]
    },
    {
      "mesh": 3
    },
    {
      "name": "RFSO#2",
      "mesh": 4
    }
  ],
  "materials": [
    {
      "pbrMetallicRoughness": {
        "baseColorTexture": {
          "index": 0
        },
        "roughnessFactor": 0.1
      },
      "name": "[Metal_Aluminum_Anodized]1"
    },
    {
      "pbrMetallicRoughness": {
        "baseColorFactor": [
          0.2176,
          0.2176,
          0.2176,
          1.0
        ],
        "metallicFactor": 0.1,
        "roughnessFactor": 0.9
      },
      "name": "default material",
      "doubleSided": true
    },
    {
      "pbrMetallicRoughness": {
        "baseColorTexture": {
          "index": 1
        },
        "roughnessFactor": 0.1
      },
      "name": "[Metal_Rough]2"
    },
    {
      "pbrMetallicRoughness": {
        "baseColorFactor": [
          0.5732,
          0.5732,
          0.5732,
          1.0
        ],
        "metallicFactor": 0.1,
        "roughnessFactor": 0.9
      },
      "name": "Color_002"
    },
    {
      "pbrMetallicRoughness": {
        "baseColorFactor": [
          0.4098,
          0.4098,
          0.4098,
          1.0
        ],
        "metallicFactor": 0.1,
        "roughnessFactor": 0.9
      },
      "name": "Color_003"
    },
    {
      "pbrMetallicRoughness": {
        "baseColorFactor": [
          0.5356,
          0.5356,
          0.5356,
          1.0
        ],
        "metallicFactor": 0.1,
        "roughnessFactor": 0.9
      },
      "name": "<Silver>"
    }
  ],
  "images": [
    {
      "bufferView": 0,
      "mimeType": "image/jpeg"
    },
    {
      "bufferView": 1,
      "mimeType": "image/jpeg"
    }
  ],
  "textures": [
    {
      "source": 0,
      "sampler": 0
    },
    {
      "source": 1,
      "sampler": 0
    }
  ],
  "meshes": [
    {
      "primitives": [
        {
          "attributes": {
            "POSITION": 2,
            "NORMAL": 3,
            "TEXCOORD_0": 4
          },
          "indices": 5,
          "mode": 4,
          "material": 0
        }
      ]
    },
    {
      "primitives": [
        {
          "attributes": {
            "POSITION": 0,
            "NORMAL": 1
          },
          "indices": 6,
          "mode": 4,
          "material": 4
        }
      ]
    },
    {
      "primitives": [
        {
          "attributes": {
            "POSITION": 0,
            "NORMAL": 1
          },
          "indices": 7,
          "mode": 4,
          "material": 5
        }
      ]
    },
    {
      "primitives": [
        {
          "attributes": {
            "POSITION": 0,
            "NORMAL": 1
          },
          "indices": 8,
          "mode": 4,
          "material": 4
        }
      ]
    },
    {
      "primitives": [
        {
          "attributes": {
            "POSITION": 0,
            "NORMAL": 1
          },
          "indices": 9,
          "mode": 4,
          "material": 5
        }
      ]
    },
    {
      "primitives": [
        {
          "attributes": {
            "POSITION": 0,
            "NORMAL": 1
          },
          "indices": 10,
          "mode": 4,
          "material": 1
        },
        {
          "attributes": {
            "POSITION": 2,
            "NORMAL": 3,
            "TEXCOORD_0": 4
          },
          "indices": 11,
          "mode": 4,
          "material": 0
        },
        {
          "attributes": {
            "POSITION": 2,
            "NORMAL": 3,
            "TEXCOORD_0": 4
          },
          "indices": 12,
          "mode": 4,
          "material": 2
        },
        {
          "attributes": {
            "POSITION": 0,
            "NORMAL": 1
          },
          "indices": 13,
          "mode": 4,
          "material": 3
        }
      ]
    }
  ],
  "accessors": [
    {
      "bufferView": 2,
      "componentType": 5126,
      "count": 1732,
      "type": "VEC3",
      "min": [
        0.1500000000000011,
        0.6011999999999998,
        -0.38499999999999945
      ],
      "max": [
        1.250000000000001,
        1.2212547809625902,
        -0.11499999999999921
      ]
    },
    {
      "bufferView": 3,
      "componentType": 5126,
      "count": 1732,
      "type": "VEC3",
      "min": [
        -1.0,
        -1.0,
        -1.0
      ],
      "max": [
        1.0,
        1.0,
        1.0
      ]
    },
    {
      "bufferView": 4,
      "componentType": 5126,
      "count": 422,
      "type": "VEC3",
      "min": [
        2.3514754706756843e-48,
        -2.816687638038912e-17,
        -0.5
      ],
      "max": [
        1.4000000000000001,
        1.1761999999999997,
        3.429011037612589e-16
      ]
    },
    {
      "bufferView": 5,
      "componentType": 5126,
      "count": 422,
      "type": "VEC3",
      "min": [
        -1.0,
        -1.0,
        -1.0
      ],
      "max": [
        1.0,
        1.0,
        1.0
      ]
    },
    {
      "bufferView": 6,
      "componentType": 5126,
      "count": 422,
      "type": "VEC2",
      "min": [
        -55.118110236220474,
        -22.622047244094503
      ],
      "max": [
        55.118110236220474,
        1.295275590551181
      ]
    },
    {
      "bufferView": 8,
      "componentType": 5123,
      "count": 516,
      "type": "SCALAR"
    },
    {
      "bufferView": 7,
      "componentType": 5123,
      "count": 132,
      "type": "SCALAR"
    },
    {
      "bufferView": 7,
      "componentType": 5123,
      "count": 2400,
      "type": "SCALAR",
      "byteOffset": 264
    },
    {
      "bufferView": 7,
      "componentType": 5123,
      "count": 132,
      "type": "SCALAR",
      "byteOffset": 5064
    },
    {
      "bufferView": 7,
      "componentType": 5123,
      "count": 2400,
      "type": "SCALAR",
      "byteOffset": 5328
    },
    {
      "bufferView": 7,
      "componentType": 5123,
      "count": 66,
      "type": "SCALAR",
      "byteOffset": 10128
    },
    {
      "bufferView": 8,
      "componentType": 5123,
      "count": 228,
      "type": "SCALAR",
      "byteOffset": 1032
    },
    {
      "bufferView": 8,
      "componentType": 5123,
      "count": 210,
      "type": "SCALAR",
      "byteOffset": 1488
    },
    {
      "bufferView": 7,
      "componentType": 5123,
      "count": 156,
      "type": "SCALAR",
      "byteOffset": 10260
    }
  ],
  "bufferViews": [
    {
      "buffer": 0,
      "byteLength": 2508
    },
    {
      "buffer": 0,
      "byteOffset": 2508,
      "byteLength": 1218
    },
    {
      "buffer": 0,
      "byteOffset": 3732,
      "byteLength": 20784,
      "target": 34962,
      "byteStride": 12
    },
    {
      "buffer": 0,
      "byteOffset": 24516,
      "byteLength": 20784,
      "target": 34962,
      "byteStride": 12
    },
    {
      "buffer": 0,
      "byteOffset": 45300,
      "byteLength": 5064,
      "target": 34962,
      "byteStride": 12
    },
    {
      "buffer": 0,
      "byteOffset": 50364,
      "byteLength": 5064,
      "target": 34962,
      "byteStride": 12
    },
    {
      "buffer": 0,
      "byteOffset": 55432,
      "byteLength": 3376,
      "target": 34962,
      "byteStride": 8
    },
    {
      "buffer": 0,
      "byteOffset": 58808,
      "byteLength": 10572,
      "target": 34963
    },
    {
      "buffer": 0,
      "byteOffset": 69380,
      "byteLength": 1908,
      "target": 34963
    }
  ],
  "buffers": [
    {
      "uri": "data:application/octet-stream;base64,",
      "byteLength": 71288
    }
  ]
}